<?xml version="1.0" standalone="no"?>
<!DOCTYPE svg PUBLIC "-//W3C//DTD SVG 20010904//EN"
 "http://www.w3.org/TR/2001/REC-SVG-20010904/DTD/svg10.dtd">
<svg version="1.0" xmlns="http://www.w3.org/2000/svg"
 width="950.000000pt" height="950.000000pt" viewBox="0 0 950.000000 950.000000"
 preserveAspectRatio="xMidYMid meet">
<metadata>
Created by potrace 1.11, written by Peter Selinger 2001-2013
</metadata>
<g transform="translate(0.000000,950.000000) scale(0.100000,-0.100000)"
fill="#000000" stroke="none">
<path d="M4557 9474 c-1 -1 -58 -4 -127 -8 -69 -3 -136 -8 -150 -10 -14 -3
-50 -7 -80 -10 -398 -43 -932 -179 -1253 -319 -17 -8 -63 -28 -102 -45 -825
-356 -1554 -969 -2059 -1732 -100 -152 -107 -163 -184 -300 -336 -603 -541
-1282 -589 -1955 -10 -139 -10 -581 0 -700 14 -167 23 -257 32 -305 2 -14 7
-43 10 -65 10 -76 30 -184 51 -280 2 -11 7 -35 10 -54 10 -60 84 -323 130
-459 294 -878 859 -1673 1589 -2236 55 -42 108 -83 117 -91 44 -36 346 -229
453 -290 463 -264 1037 -467 1553 -550 17 -3 44 -7 60 -9 50 -9 186 -26 257
-34 93 -9 828 -9 930 1 231 22 577 86 775 143 595 170 1065 395 1540 738 99
71 81 57 237 185 229 188 449 409 658 662 326 392 620 919 798 1429 107 305
207 749 232 1025 4 39 8 81 11 95 23 140 23 681 -1 880 -2 19 -7 62 -10 95 -6
64 -10 92 -26 195 -6 36 -12 76 -14 90 -6 43 -35 181 -56 270 -12 47 -22 92
-24 100 -15 62 -51 185 -86 290 -149 451 -365 875 -653 1285 -42 59 -212 272
-279 350 -71 82 -350 363 -422 425 -140 121 -179 153 -255 211 -263 201 -510
354 -801 497 -264 130 -478 213 -804 312 -113 34 -418 100 -534 116 -25 3 -55
8 -66 10 -37 8 -270 33 -360 40 -81 6 -502 13 -508 8z m543 -177 c14 -3 59 -8
100 -12 41 -3 86 -8 100 -9 14 -2 48 -7 75 -10 28 -4 57 -9 65 -11 8 -2 35 -6
60 -9 53 -7 57 -8 186 -36 1336 -286 2461 -1139 3102 -2350 105 -199 226 -487
293 -695 16 -49 33 -103 39 -120 15 -47 88 -337 95 -375 3 -19 8 -46 10 -60 3
-14 8 -36 10 -50 10 -49 34 -216 41 -280 3 -36 8 -67 10 -71 1 -3 6 -61 11
-130 14 -224 8 -684 -11 -799 -3 -14 -7 -54 -11 -90 -7 -78 -37 -264 -60 -375
-9 -44 -18 -87 -20 -95 -60 -289 -196 -671 -358 -1004 -255 -523 -661 -1049
-1112 -1437 -198 -171 -522 -400 -725 -514 -219 -123 -533 -265 -755 -342
-187 -65 -503 -151 -617 -168 -24 -4 -45 -8 -48 -10 -3 -2 -26 -6 -50 -10 -47
-6 -81 -12 -127 -20 -30 -5 -80 -10 -178 -20 -33 -4 -71 -9 -85 -12 -43 -9
-661 -12 -740 -3 -41 4 -109 11 -150 14 -41 4 -131 16 -200 26 -816 124 -1571
462 -2215 989 -121 100 -156 132 -330 306 -163 162 -195 197 -275 295 -25 30
-47 57 -50 60 -47 44 -265 356 -361 518 -113 189 -259 477 -310 612 -9 25 -33
88 -53 140 -71 181 -162 502 -201 705 -5 22 -9 46 -11 53 -2 12 -12 74 -30
182 -2 14 -6 50 -9 80 -4 30 -8 62 -10 70 -27 110 -27 808 0 1010 7 55 18 136
19 155 4 33 16 104 37 210 18 93 22 112 34 166 70 318 198 674 359 999 97 195
149 284 281 485 129 196 223 319 395 519 42 49 329 337 385 386 22 19 76 64
120 100 44 36 82 67 85 70 19 19 245 181 340 243 249 161 548 316 815 420 125
49 186 69 400 137 50 16 136 38 305 76 56 13 68 15 150 30 113 20 131 23 171
28 19 2 59 7 89 11 85 11 108 13 215 21 55 3 102 8 104 10 5 5 572 -4 601 -9z"/>
<path d="M2924 8240 c-21 -8 -94 -87 -94 -101 0 -18 -29 -15 -51 4 -84 77
-110 94 -134 90 -32 -7 -48 -27 -76 -93 -12 -30 -27 -61 -32 -67 -19 -25 -51
-12 -107 41 -37 36 -64 53 -76 51 -10 -2 -23 -4 -27 -4 -14 -2 -34 -63 -40
-119 -9 -85 -42 -107 -102 -66 -87 59 -114 65 -146 33 -20 -20 -21 -29 -15
-99 7 -88 -3 -107 -51 -95 -16 4 -29 7 -30 7 -1 0 -22 6 -47 13 -24 7 -52 12
-63 10 -10 -2 -21 -4 -24 -4 -18 -2 -31 -66 -26 -131 4 -63 3 -74 -16 -95 -21
-23 -24 -23 -82 -11 -62 13 -112 7 -127 -16 -12 -20 -9 -63 9 -128 16 -58 16
-61 -3 -75 -13 -10 -45 -14 -96 -15 -42 0 -88 -5 -101 -11 -55 -25 -51 -81 11
-171 48 -70 43 -86 -26 -94 -84 -10 -142 -26 -151 -42 -17 -34 -9 -50 69 -135
42 -45 53 -72 37 -85 -7 -5 -47 -24 -90 -42 -103 -43 -136 -86 -106 -141 6
-11 41 -40 78 -64 83 -54 95 -67 87 -100 -5 -20 -25 -35 -91 -66 -90 -43 -115
-67 -115 -109 0 -35 29 -60 130 -110 101 -50 120 -65 120 -97 0 -26 -43 -71
-88 -94 -15 -7 -55 -33 -89 -57 -61 -42 -82 -74 -70 -106 8 -19 53 -42 97 -50
220 -36 236 -42 248 -89 12 -45 0 -73 -68 -147 -77 -85 -115 -152 -100 -180
24 -44 70 -47 278 -15 31 5 80 -41 87 -81 4 -27 -5 -44 -61 -118 -107 -142
-120 -193 -58 -216 20 -8 53 0 160 36 128 43 136 45 159 30 14 -9 26 -23 26
-31 1 -8 2 -21 3 -27 1 -7 -23 -65 -55 -128 -73 -149 -83 -183 -60 -211 9 -12
29 -21 42 -21 14 0 85 24 157 54 124 52 133 54 160 41 54 -26 54 -46 5 -177
-61 -162 -63 -219 -8 -242 44 -18 86 -5 232 71 156 82 171 68 124 -120 -60
-245 -16 -301 145 -189 38 26 89 62 114 79 65 46 111 33 103 -28 -2 -17 -5
-86 -6 -152 -2 -128 8 -171 44 -193 41 -26 79 -5 181 99 96 98 127 119 172
119 40 0 49 -36 60 -242 8 -141 24 -178 77 -178 39 0 75 35 154 145 68 97 88
115 131 120 41 4 64 -35 105 -181 60 -214 72 -239 125 -248 43 -8 107 65 172
196 56 112 101 158 153 158 38 0 52 -21 114 -175 72 -179 102 -233 138 -252
60 -30 67 -18 262 455 l59 144 17 -39 c16 -38 43 -147 53 -213 5 -33 9 -86 21
-300 28 -479 221 -878 560 -1155 118 -97 183 -166 206 -218 27 -64 37 -198 20
-280 -29 -135 -124 -266 -235 -320 -141 -69 -264 -36 -365 98 l-22 30 4 -63
c4 -43 13 -76 32 -107 83 -142 321 -199 489 -116 173 85 335 319 367 531 19
122 -9 271 -77 415 -25 53 -101 150 -232 294 -113 123 -135 150 -168 206 -68
114 -121 266 -156 450 -17 90 -17 413 0 521 26 168 98 334 145 334 47 0 123
-57 282 -211 219 -213 351 -304 542 -372 113 -41 223 -58 363 -56 143 1 229
14 415 59 289 70 304 73 475 100 157 25 427 21 551 -8 129 -31 232 -67 358
-128 l114 -54 -45 52 c-64 76 -222 206 -312 257 -93 53 -240 105 -356 125 -93
16 -367 19 -485 5 -66 -8 -94 -11 -225 -25 -30 -3 -66 -8 -80 -11 -14 -3 -113
-6 -220 -8 -291 -5 -429 27 -563 134 -155 123 -482 433 -523 496 -28 44 2 49
134 25 83 -15 80 -14 287 -63 274 -66 289 -68 447 -70 255 -3 389 18 653 104
227 73 293 87 420 87 126 -1 261 -30 430 -93 105 -39 421 -191 565 -271 l85
-48 -39 45 c-151 173 -429 415 -590 516 -187 116 -321 157 -506 157 -131 -1
-160 -6 -390 -67 -196 -52 -292 -68 -405 -67 -173 0 -343 33 -615 119 -192 60
-430 151 -430 164 0 2 48 4 108 4 362 2 801 172 1203 465 62 46 138 108 167
138 106 110 180 259 218 440 22 109 23 299 0 392 -48 201 -183 343 -372 392
-144 37 -262 2 -342 -103 -18 -24 -31 -45 -29 -47 2 -3 25 5 52 17 98 43 228
20 313 -56 95 -85 137 -204 130 -360 -9 -161 -63 -277 -199 -420 -201 -212
-449 -319 -874 -381 -22 -3 -50 -7 -62 -9 -122 -20 -275 -23 -358 -8 -171 32
-283 132 -410 368 -174 322 -294 463 -469 552 -28 14 -82 55 -121 90 -254 234
-602 363 -975 363 -120 0 -150 -3 -219 -24 -75 -22 -213 -15 -276 15 -87 41
-169 138 -196 234 -40 136 -5 226 95 242 36 6 86 -19 86 -42 0 -11 -8 -10 -39
2 -44 17 -77 13 -110 -16 -31 -27 -36 -77 -17 -163 39 -174 158 -269 337 -271
61 0 86 5 133 26 85 39 176 107 241 181 42 47 66 66 91 71 36 6 64 37 64 70 0
11 -11 33 -25 49 -33 39 -32 50 10 76 20 12 38 33 42 48 5 21 0 31 -28 55 -19
17 -39 44 -45 61 -9 27 -8 33 13 49 30 24 31 79 3 107 -11 11 -26 20 -32 21
-59 3 -74 19 -48 49 27 31 34 63 21 89 -10 18 -31 26 -95 35 -27 4 -30 20 -13
64 29 75 2 115 -74 110 -67 -4 -79 10 -79 94 0 60 -3 72 -25 93 -28 29 -47 31
-105 10 -80 -28 -103 -15 -114 65 -7 54 -33 90 -65 90 -10 0 -42 -16 -71 -35
-29 -19 -60 -35 -69 -35 -20 0 -50 30 -76 77 -27 46 -66 61 -111 43z m83 -148
c29 -37 48 -49 88 -56 29 -5 107 22 119 43 13 20 22 12 24 -21 6 -88 107 -147
191 -112 18 8 37 14 41 14 4 0 7 -24 6 -52 0 -29 6 -66 14 -83 19 -38 75 -75
112 -75 24 0 28 -3 23 -19 -21 -67 -3 -114 54 -139 30 -14 37 -22 30 -33 -26
-41 4 -119 53 -140 23 -9 26 -14 17 -31 -13 -23 -9 -105 5 -133 6 -11 19 -26
28 -33 15 -11 15 -14 -8 -37 -13 -13 -25 -31 -25 -40 -1 -8 -2 -25 -3 -37 -1
-13 3 -35 10 -49 12 -24 11 -27 -9 -36 -13 -6 -43 -35 -67 -65 -52 -64 -141
-134 -219 -173 -49 -24 -63 -27 -130 -23 -93 5 -146 33 -189 98 -33 49 -49 94
-56 153 -4 30 -1 37 13 37 10 0 30 -11 45 -25 34 -31 39 -31 71 1 75 75 58
162 -41 212 -48 24 -91 20 -161 -14 -78 -38 -113 -99 -113 -198 0 -117 51
-236 138 -323 123 -124 277 -155 488 -99 54 14 275 15 369 1 244 -35 489 -141
667 -289 77 -64 223 -225 280 -310 160 -234 224 -572 177 -931 -36 -272 -80
-410 -289 -915 -56 -135 -142 -344 -192 -465 -111 -270 -118 -286 -128 -280
-5 3 -29 56 -54 118 -98 239 -128 280 -208 281 -94 1 -161 -56 -230 -195 -26
-53 -57 -108 -70 -124 l-22 -28 -9 24 c-5 13 -26 87 -48 163 -21 77 -47 151
-57 165 -30 41 -81 71 -121 71 -73 -1 -113 -30 -191 -139 -39 -56 -76 -103
-81 -107 -5 -3 -10 14 -10 38 -6 186 -14 252 -40 298 -27 47 -66 68 -119 63
-69 -7 -107 -31 -197 -123 -48 -50 -91 -90 -96 -90 -6 0 -7 61 -4 153 4 137 3
155 -14 183 -21 35 -73 64 -114 64 -25 0 -75 -21 -99 -42 -6 -5 -42 -31 -81
-59 -50 -35 -71 -45 -73 -35 -2 8 9 61 23 118 15 57 27 117 27 134 0 72 -57
134 -125 134 -15 0 -85 -29 -158 -65 -73 -36 -134 -63 -136 -61 -6 5 26 117
37 131 22 29 50 139 44 172 -8 44 -56 99 -101 118 -45 19 -83 12 -194 -36 -50
-22 -93 -38 -94 -37 -2 2 21 53 51 113 48 97 54 116 50 159 -5 57 -29 94 -77
119 -45 23 -102 17 -202 -21 -42 -17 -74 -25 -70 -19 4 7 32 45 62 86 49 65
56 80 57 124 3 66 -11 100 -53 137 -55 49 -76 53 -186 40 -54 -7 -100 -11
-102 -8 -2 2 19 28 46 58 98 106 120 163 98 244 -9 34 -77 105 -102 107 -6 0
-21 2 -32 5 -26 6 -57 11 -123 19 -51 7 -64 17 -39 29 6 3 26 15 42 26 17 11
46 28 65 39 48 26 69 52 84 103 30 98 -3 140 -171 220 l-66 32 69 32 c94 43
137 89 138 148 0 58 -21 88 -102 142 -34 22 -64 43 -67 46 -4 3 26 19 66 34
89 36 139 80 139 121 0 43 -23 93 -59 127 -29 28 -40 48 -23 44 29 -7 114 17
141 40 48 42 49 86 0 166 -21 36 -39 67 -39 70 0 3 27 4 61 2 49 -2 70 2 108
20 72 36 87 77 61 169 -7 25 -11 48 -8 50 2 2 22 0 43 -6 112 -31 189 40 183
169 -2 55 0 66 12 64 124 -29 151 -27 195 11 30 25 44 78 34 125 -3 17 -4 32
-2 32 2 0 24 -12 49 -26 59 -35 119 -28 171 20 30 27 36 41 41 85 l5 52 31
-29 c43 -41 65 -50 109 -46 55 5 91 35 118 99 13 30 29 55 34 55 6 -1 26 -17
45 -36 39 -40 68 -54 110 -54 23 0 40 13 81 61 49 56 54 59 66 42 8 -10 25
-33 40 -51z m2218 -2771 c103 -47 150 -151 111 -246 -25 -60 -115 -102 -187
-88 -21 4 -24 9 -21 37 3 29 6 32 37 28 38 -5 90 19 105 49 31 58 -24 162 -92
176 -23 4 -28 11 -28 34 0 35 17 37 75 10z"/>
<path d="M8074 5475 c-88 -19 -196 -67 -310 -136 -54 -34 -137 -85 -184 -114
-261 -161 -463 -224 -730 -229 -126 -2 -142 -5 -235 -38 -98 -35 -295 -84
-445 -112 l-75 -13 90 -42 c60 -28 145 -56 253 -82 150 -36 176 -40 305 -40
163 -1 293 21 466 77 207 67 365 162 547 329 135 125 144 133 222 196 100 80
179 124 357 194 58 23 -162 32 -261 10z"/>
<path d="M5391 3825 c-31 -82 -51 -224 -51 -356 l0 -116 49 -69 c128 -178 300
-317 536 -430 131 -63 227 -95 395 -133 224 -51 371 -110 515 -206 149 -99
232 -187 494 -524 117 -149 233 -240 368 -286 135 -45 135 -45 26 62 -119 118
-167 188 -294 434 -175 338 -290 472 -559 649 -156 102 -207 124 -480 206
-275 82 -384 137 -488 249 -64 68 -158 199 -237 330 -26 44 -60 91 -74 105
-40 39 -164 140 -172 140 -4 0 -17 -25 -28 -55z"/>
</g>
</svg>
